<svg xmlns="http://www.w3.org/2000/svg" viewBox="0 0 26 32"><g fill="none" fill-rule="evenodd"><g stroke="#65A6FF"><path fill="#FFF" d="M25.5 7.2L18.8.5H2C1.17.5.5 1.17.5 2v28c0 .83.67 1.5 1.5 1.5h22c.83 0 1.5-.67 1.5-1.5V7.2z"/><path fill="#65A6FF" d="M18.5.5v7h7"/></g><path fill="#197BFF" d="M6 11h14v2H6v-2zm0 4h12v2H6v-2zm0 4h14v2H6v-2zm0 4h10v2H6v-2z"/><g><path fill="#B2D3FF" d="M0 2C0 .9.9 0 2 0h17l7 7v23a2 2 0 0 1-2 2H2a2 2 0 0 1-2-2V2z"/><path fill="#65A6FF" stroke="#65A6FF" d="M18.86.86c-.2-.2-.36-.13-.36.14v6.5H25c.27 0 .34-.16.14-.36L18.86.86z"/><path fill="#197BFF" d="M18.5 0a.5.5 0 0 0-.5.5V8h7.5a.5.5 0 0 0 .5-.5V7l-7-7h-.5zM6 11h14v2H6v-2zm0 4h12v2H6v-2zm0 4h14v2H6v-2zm0 4h10v2H6v-2z"/></g></g></svg>