<svg xmlns="http://www.w3.org/2000/svg" viewBox="0 0 32 28"><g fill="none" fill-rule="evenodd" transform="translate(0 -2)"><g transform="translate(0 2)"><g stroke="#FFB97A"><path fill="#FFFFFF" d="M31.5 7.2L24.8.5H2C1.17.5.5 1.17.5 2v24c0 .83.67 1.5 1.5 1.5h28c.83 0 1.5-.67 1.5-1.5V7.2z"/><polyline fill="#FFB97A" points="24.5 .5 24.5 7.5 31.5 7.5"/></g><path fill="#FF9433" d="M10 16h16v2H10v-2zm0 4h16v2H10v-2zm-4-4h2v2H6v-2zm0 4h2v2H6v-2zm10-6a4 4 0 1 1 0-8v4h4a4 4 0 0 1-4 4zm1-5V5c2 0 4 2 4 4h-4z"/></g><g transform="translate(0 2)"><path fill="#FFDEC1" d="M0 2a2 2 0 0 1 2-2h23l7 7v19a2 2 0 0 1-2 2H2a2 2 0 0 1-2-2V2z"/><path fill="#FF9433" d="M24.5 0a.5.5 0 0 0-.5.5V8h7.5a.5.5 0 0 0 .5-.5V7l-7-7h-.5zM10 16h16v2H10v-2zm0 4h16v2H10v-2zm-4-4h2v2H6v-2zm0 4h2v2H6v-2zm10-6a4 4 0 1 1 0-8v4h4a4 4 0 0 1-4 4zm1-5V5c2 0 4 2 4 4h-4z"/></g></g></svg>