<svg xmlns="http://www.w3.org/2000/svg" viewBox="0 0 26 32"><g fill="none" fill-rule="evenodd"><g stroke="#71D17F"><path fill="#FFF" d="M25.5 7.2L18.8.5H2C1.17.5.5 1.17.5 2v28c0 .83.67 1.5 1.5 1.5h22c.83 0 1.5-.67 1.5-1.5V7.2z"/><path fill="#71D17F" d="M18.5.5v7h7"/></g><path fill="#2BBA40" d="M5 9h4v2H5V9zm0-4h4v2H5V5zm0 8h4v2H5v-2zm0 4h4v2H5v-2zm0 4h4v2H5v-2zm0 4h4v2H5v-2zm6-16h4v2h-4V9zm0-4h4v2h-4V5zm0 8h4v2h-4v-2zm0 4h4v2h-4v-2zm0 4h4v2h-4v-2zm0 4h4v2h-4v-2zm6-12h4v2h-4v-2zm0 4h4v2h-4v-2zm0 4h4v2h-4v-2zm0 4h4v2h-4v-2z"/><g><path fill="#9FE6A2" d="M0 2C0 .9.9 0 2 0h17l7 7v23a2 2 0 0 1-2 2H2a2 2 0 0 1-2-2V2z"/><path fill="#65A6FF" stroke="#65A6FF" d="M18.86.86c-.2-.2-.36-.13-.36.14v6.5H25c.27 0 .34-.16.14-.36L18.86.86z"/><path fill="#10C016" d="M18.5 0a.5.5 0 0 0-.5.5V8h7.5a.5.5 0 0 0 .5-.5V7l-7-7h-.5zM5 9h4v2H5V9zm0-4h4v2H5V5zm0 8h4v2H5v-2zm0 4h4v2H5v-2zm0 4h4v2H5v-2zm0 4h4v2H5v-2zm6-16h4v2h-4V9zm0-4h4v2h-4V5zm0 8h4v2h-4v-2zm0 4h4v2h-4v-2zm0 4h4v2h-4v-2zm0 4h4v2h-4v-2zm6-12h4v2h-4v-2zm0 4h4v2h-4v-2zm0 4h4v2h-4v-2zm0 4h4v2h-4v-2z"/></g></g></svg>